# xmcd CD database file
#
# Track frame offsets:
#	150
#	22095
#	44822
#	67175
#	86687
#	101495
#	115252
#	136130
#	155725
#	174965
#	206860
#
# Disc length: 3250 seconds
#
# Revision: 0
# Processed by: cddbd v1.5PL3 Copyright (c) Steve Scherf et al.
# Submitted via: cdripper 1.0.7
#
DISCID=a10cb00b
DTITLE=Various Artist - Blues on the High Seas, King Snake Live!
DYEAR=1998
DGENRE=Blues
TTITLE0=Ain't Nothing But a Party  - Ace Moreland
TTITLE1=You Got a Way With Me  - Ace Moreland
TTITLE2=No, No, Henrietta  - Ace Moreland
TTITLE3=Big Mama's in the House  - Ace Moreland
TTITLE4=That's What I Like About You  - Junior Markham
TTITLE5=House of Blue  - Junior Markham
TTITLE6=Goin' Back to Daytona  - Floyd Miles
TTITLE7=Cold, Cold World  - Floyd Miles
TTITLE8=Please Send Me Someone to Love  - Watts, Noble "Thin Man"
TTITLE9=You're the One  - Sonny Rhodes
TTITLE10=Put the Shoe on the Other Foot  - Sonny Rhodes
EXTD=YEAR: 1998
EXTT0=
EXTT1=
EXTT2=
EXTT3=
EXTT4=
EXTT5=
EXTT6=
EXTT7=
EXTT8=
EXTT9=
EXTT10=
PLAYORDER=
